PathFileType	4	(X/Y/Z)	C:\Users\WrightLab\Desktop\Jo\P5V32.trc
DataRate	CameraRate	NumFrames	NumMarkers	Units	OrigDataRate	OrigDataStartFrame	OrigNumFrames
100.00	100.00	      7	19	mm	100.00	413	      1100
Frame#	Time	Headset_Front			Headset_Back			Headset_Left			Headset_Right			Left_Shoulder			Right_Shoulder			Sternum			C7			Left Elbow			Right Elbow			Left Wrist			Right Wrist			Left ASIS			Right ASIS			S2			Left Knee			Right Knee			Left Ankle			Right Ankle			
		X1	Y1	Z1	X2	Y2	Z2	X3	Y3	Z3	X4	Y4	Z4	X5	Y5	Z5	X6	Y6	Z6	X7	Y7	Z7	X8	Y8	Z8	X9	Y9	Z9	X10	Y10	Z10	X11	Y11	Z11	X12	Y12	Z12	X13	Y13	Z13	X14	Y14	Z14	X15	Y15	Z15	X16	Y16	Z16	X17	Y17	Z17	X18	Y18	Z18	X19	Y19	Z19	

413	4.120	-357.25714	1426.94373	-416.08893							-389.05392	1555.87427	-325.28131	-17.88565	1514.04761	-461.56522				-215.86317	1306.39600	-386.36118	-240.29208	1520.62939	-578.55273	-26.48356	1267.40869	-343.17038	-540.79932	1238.83447	-337.24176	81.01506	1238.32520	-515.11786	-522.76068	1204.90967	-92.16509	-48.17658	926.79321	-387.52338	-350.08328	931.31665	-372.37756	-183.09914	974.95117	-670.26556	-49.54194	488.28745	-425.23914	-377.45950	507.30569	-386.70444	-72.46626	84.34589	-568.96936	-384.99026	98.43616	-355.81543	
414	4.130										-390.91113	1555.65442	-321.48325	-20.26354	1514.71680	-459.06400	-359.15396	1426.56763	-411.84317	-217.99063	1305.87744	-382.14182	-242.86128	1519.91760	-574.94312	-28.72842	1266.67346	-340.14542	-542.72040	1238.19409	-333.06754	79.29001	1237.77234	-512.84076	-524.64716	1204.32068	-87.63624	-48.02238	926.52423	-383.50058	-350.49261	930.82300	-367.49078	-185.61726	973.97778	-664.43530	-50.84972	488.08075	-423.14520	-378.16098	505.58301	-383.33047	-72.24805	84.65823	-568.98956	-385.89581	97.58254	-354.76053	
415	4.140										-392.66910	1555.53906	-317.40329	-22.09791	1514.10999	-455.14273	-419.47836	1446.90222	-426.67847	-218.74271	1305.02661	-377.99777	-245.59511	1519.13318	-571.22821	-30.26457	1266.74036	-336.92563	-545.31287	1237.28442	-328.66629	77.24216	1238.30884	-509.74789	-526.35175	1203.54407	-83.36643	-48.37406	927.04065	-380.21353	-350.99734	930.45544	-363.28842	-187.94882	973.66840	-661.10107	-52.88287	487.32645	-421.41812	-379.88849	503.66953	-380.89505	-72.19184	84.84820	-569.03491	-385.67841	96.14604	-354.51923	
416	4.150	-312.13596	1473.18079	-213.45578							-394.56601	1555.30481	-313.45157	-24.55234	1514.47168	-452.81381	-421.03772	1445.61536	-422.23291	-221.04948	1305.31494	-374.40582	-248.58308	1518.44702	-567.68616	-31.78348	1267.23279	-333.66833	-547.09845	1236.38623	-324.31485	75.07789	1238.49097	-507.26971	-528.43365	1202.67493	-78.80395	-50.01244	926.95496	-376.62405	-351.32785	929.94952	-358.70908	-191.26064	972.78784	-655.64868	-54.53140	486.72287	-419.88065	-380.11307	501.73447	-377.47375	-72.49423	84.83113	-568.85785	-385.40186	95.35256	-354.32751	
417	4.160										-396.55054	1555.32947	-309.31326	-27.37580	1514.72131	-450.35046	-423.05487	1444.67322	-417.75745	-222.12059	1304.08057	-372.02802	-251.58905	1517.90271	-564.56702	-33.14317	1267.54370	-330.97955	-549.65088	1235.46716	-319.77481	73.57625	1238.67407	-503.88297	-530.20972	1202.20728	-74.67447	-50.15131	927.34564	-372.92032	-352.13068	929.08899	-354.51764	-194.03943	972.07446	-650.77203	-55.12474	487.11011	-417.74374	-383.13263	499.86212	-376.32413	-72.51458	84.83292	-568.86969	-383.52493	93.59692	-353.59067	
418	4.170	-314.46295	1474.58862	-204.93674							-398.57068	1555.34937	-304.79535	-29.75905	1514.52466	-448.21857	-424.43713	1444.04346	-413.33432	-224.23738	1305.23914	-367.45251	-254.31406	1517.04150	-561.06024	-34.24395	1268.04919	-327.00385	-551.62384	1234.76489	-315.57236	70.68158	1238.59875	-501.47925	-532.32355	1200.88672	-70.06171	-51.27483	927.49780	-370.02405	-352.18295	928.98004	-349.82620	-197.12929	971.67261	-646.35413	-56.40444	486.88687	-416.07535	-382.87491	496.97827	-373.02042	-72.50767	84.85197	-568.87402	-382.52487	93.00361	-353.26230	
419	4.180										-400.74518	1555.83862	-301.88724	-32.33652	1514.88428	-445.36584	-427.32477	1443.16357	-409.49347	-225.54491	1305.58850	-363.52399	-257.60403	1517.05664	-557.19635	-36.09361	1268.88391	-324.60403	-553.86499	1233.73218	-310.92749	68.54333	1239.40503	-499.85501	-533.97345	1200.50708	-65.99801	-51.52567	927.84583	-365.71506	-353.06995	928.63770	-345.01984	-200.22852	971.27808	-640.73810	-58.04767	486.54224	-414.08008	-384.24283	493.85159	-371.07043	-72.43452	85.39374	-568.49536	-381.57126	92.83711	-351.89008	
